<svg version="1.1" xmlns="http://www.w3.org/2000/svg" xmlns:xlink="http://www.w3.org/1999/xlink" width="555.00335" height="538.5" viewBox="0,0,555.00335,538.5"><g transform="translate(30.17968,78.75)"><g data-paper-data="{&quot;isPaintingLayer&quot;:true}" fill-rule="nonzero" stroke-linecap="butt" stroke-linejoin="miter" stroke-miterlimit="10" stroke-dasharray="" stroke-dashoffset="0" style="mix-blend-mode: normal"><path d="M-30.17968,459.75v-538.5h538.5v538.5z" fill="#b0ab8d" stroke="none" stroke-width="NaN"/><path d="M168.58484,37.77123c0,14.49748 -34.69793,26.25 -77.5,26.25c-42.80207,0 -77.5,-11.75252 -77.5,-26.25c0,-14.49748 34.69793,-26.25 77.5,-26.25c42.80207,0 77.5,11.75253 77.5,26.25z" fill="#e7f5ff" stroke="none" stroke-width="0"/><path d="M239.29912,58.48552c0,14.49748 -34.69793,26.25 -77.5,26.25c-42.80207,0 -77.5,-11.75253 -77.5,-26.25c0,-14.49748 34.69793,-26.25 77.5,-26.25c42.80207,0 77.5,11.75252 77.5,26.25z" fill="#e7f5ff" stroke="none" stroke-width="0"/><path d="M422.15626,104.91409c0,14.49747 -34.69793,26.25 -77.5,26.25c-42.80207,0 -77.5,-11.75253 -77.5,-26.25c0,-14.49747 34.69793,-26.25 77.5,-26.25c42.80207,0 77.5,11.75253 77.5,26.25z" fill="#e7f5ff" stroke="none" stroke-width="0"/><path d="M477.87062,118.84266c0,14.49747 -34.69793,26.25 -77.5,26.25c-42.80207,0 -77.5,-11.75253 -77.5,-26.25c0,-14.49747 34.69793,-26.25 77.5,-26.25c42.80207,0 77.5,11.75253 77.5,26.25z" fill="#e7f5ff" stroke="none" stroke-width="0"/><path d="M406.18732,366.90005v-187.72727h118.63636v187.72727z" fill="#ffbc66" stroke="#000000" stroke-width="0"/></g></g></svg>