<svg version="1.1" xmlns="http://www.w3.org/2000/svg" xmlns:xlink="http://www.w3.org/1999/xlink" width="549.6504" height="538.5" viewBox="0,0,549.6504,538.5"><g transform="translate(30.17968,78.75)"><g data-paper-data="{&quot;isPaintingLayer&quot;:true}" fill-rule="nonzero" stroke-linejoin="miter" stroke-miterlimit="10" stroke-dasharray="" stroke-dashoffset="0" style="mix-blend-mode: normal"><path d="M-30.17968,459.75v-538.5h538.5v538.5z" fill="#66bfff" stroke="none" stroke-width="NaN" stroke-linecap="butt"/><path d="M168.58484,37.77123c0,14.49748 -34.69793,26.25 -77.5,26.25c-42.80207,0 -77.5,-11.75252 -77.5,-26.25c0,-14.49748 34.69793,-26.25 77.5,-26.25c42.80207,0 77.5,11.75253 77.5,26.25z" fill="#e7f5ff" stroke="none" stroke-width="0" stroke-linecap="butt"/><path d="M239.29912,58.48552c0,14.49748 -34.69793,26.25 -77.5,26.25c-42.80207,0 -77.5,-11.75253 -77.5,-26.25c0,-14.49748 34.69793,-26.25 77.5,-26.25c42.80207,0 77.5,11.75252 77.5,26.25z" fill="#e7f5ff" stroke="none" stroke-width="0" stroke-linecap="butt"/><path d="M422.15626,104.91409c0,14.49747 -34.69793,26.25 -77.5,26.25c-42.80207,0 -77.5,-11.75253 -77.5,-26.25c0,-14.49747 34.69793,-26.25 77.5,-26.25c42.80207,0 77.5,11.75253 77.5,26.25z" fill="#e7f5ff" stroke="none" stroke-width="0" stroke-linecap="butt"/><path d="M477.87057,118.84266c0,14.49747 -34.69793,26.25 -77.5,26.25c-42.80207,0 -77.5,-11.75253 -77.5,-26.25c0,-14.49747 34.69793,-26.25 77.5,-26.25c42.80207,0 77.5,11.75253 77.5,26.25z" fill="#e7f5ff" stroke="none" stroke-width="0" stroke-linecap="butt"/><path d="M398.22072,24.6875c0,-33.48226 27.14274,-60.625 60.625,-60.625c33.48226,0 60.625,27.14274 60.625,60.625c0,33.48227 -27.14273,60.625 -60.625,60.625c-33.48226,0 -60.625,-27.14273 -60.625,-60.625z" fill="#ffb23a" stroke="none" stroke-width="0" stroke-linecap="butt"/><path d="M322.59572,19.6875l43.75,-5.625" fill="none" stroke="#ffb23a" stroke-width="1" stroke-linecap="round"/><path d="M342.20946,58.56818l37.27273,-19.54545" fill="none" stroke="#ffb23a" stroke-width="1" stroke-linecap="round"/><path d="M404.02764,66.29546l-35,32.72727" fill="none" stroke="#ffb23a" stroke-width="1" stroke-linecap="round"/><path d="M435.84581,89.02273l-10,33.63637" fill="none" stroke="#ffb23a" stroke-width="1" stroke-linecap="round"/><path d="M475.84581,92.20455l-2.72727,39.09091" fill="none" stroke="#ffb23a" stroke-width="1" stroke-linecap="round"/><path d="M127.94283,423.9428v-132.43639h15.18465v132.43639z" fill="#cce7ff" stroke="none" stroke-width="0" stroke-linecap="butt"/><path d="M249.54761,424.91085v-132.43639h15.18465v132.43639z" fill="#cce7ff" stroke="none" stroke-width="0" stroke-linecap="butt"/><path d="M358.06283,425.38446v-132.43639h15.18465v132.43639z" fill="#cce7ff" stroke="none" stroke-width="0" stroke-linecap="butt"/><path d="M393.11854,401.75v-187.72727h118.63636v187.72727z" fill="#ffbc66" stroke="#000000" stroke-width="0" stroke-linecap="butt"/></g></g></svg>