<svg version="1.1" xmlns="http://www.w3.org/2000/svg" xmlns:xlink="http://www.w3.org/1999/xlink" width="331.68602" height="164.45667" viewBox="0,0,331.68602,164.45667"><g transform="translate(-74.19118,-108.12392)"><g data-paper-data="{&quot;isPaintingLayer&quot;:true}" stroke-miterlimit="10" stroke-dasharray="" stroke-dashoffset="0" style="mix-blend-mode: normal"><path d="M229.89744,196.02904l-6.8239,35.90161l-25.66799,15.7354l-80.11489,1.79416" data-paper-data="{&quot;index&quot;:null}" fill="none" fill-rule="nonzero" stroke="#0050f2" stroke-width="1" stroke-linecap="round" stroke-linejoin="miter"/><path d="M240.22988,150.42958c-58.21195,0 -105.40205,-6.2371 -105.40205,-13.93094c0,-7.69384 47.1901,-13.93094 105.40205,-13.93094c58.21195,0 105.40205,6.2371 105.40205,13.93094c0,7.69384 -47.1901,13.93094 -105.40205,13.93094z" data-paper-data="{&quot;index&quot;:null}" fill="#ffffff" fill-rule="nonzero" stroke="#000000" stroke-width="0.5" stroke-linecap="butt" stroke-linejoin="miter"/><path d="M90.40653,272.39106l74.54808,-78.80839l25.41412,-15.29119l-2.4204,10.19413z" data-paper-data="{&quot;index&quot;:null}" fill="#006bff" fill-rule="nonzero" stroke="#000000" stroke-width="0.5" stroke-linecap="round" stroke-linejoin="miter"/><path d="M74.3728,267.6598l74.54808,-78.80839l25.41412,-15.29119l-2.4204,10.19413z" data-paper-data="{&quot;index&quot;:null}" fill="#006bff" fill-rule="nonzero" stroke="#000000" stroke-width="0.5" stroke-linecap="round" stroke-linejoin="miter"/><g data-paper-data="{&quot;index&quot;:null}" fill-rule="evenodd" stroke="#000000" stroke-width="0.05"><path d="M205.23497,166.98724c-4.60802,0.96001 -10.17603,2.49601 -14.78404,6.72002c-10.56002,9.40802 -13.82403,24.96006 -21.12005,20.92805c-7.48802,-4.03201 -7.29602,-29.18407 16.12804,-36.86409c8.06402,-2.68801 15.36004,-2.68801 21.31205,-2.49601c1.53601,0 14.78404,1.344 19.39205,7.87202c4.60801,6.52801 1.344,8.25602 -0.192,9.02402c-1.728,0.96 -14.20803,-6.33601 -20.73605,-5.18401z" fill="#ffab19" stroke-linecap="round" stroke-linejoin="round"/><path d="M178.3549,187.72329c-3.07201,4.41601 -4.03201,7.29602 -7.87202,6.52802c-3.84001,-1.152 -5.76001,-9.21602 -3.84001,-15.93604c1.92001,-6.72002 4.99201,-10.17602 7.48802,-12.67203c-0.384,1.344 -1.152,5.56801 2.11201,8.06402c4.03201,3.264 11.13603,1.536 11.13603,1.536c0,0 -5.95201,7.29602 -9.02402,12.48003z" fill="#ffffff" stroke-linecap="butt" stroke-linejoin="miter"/></g><path d="M266.09911,192.13929c-3.264,2.88001 -9.79202,1.536 -9.98402,-3.84001c0,-4.99201 4.03201,-10.17602 6.33602,-13.24803c2.304,-3.07201 13.05603,-14.40003 26.30406,-8.44802c5.56802,2.88001 18.62405,13.63203 11.71203,19.96805c-6.91201,6.33602 -13.24803,-1.536 -17.85604,-5.56801c-3.84001,-3.45601 -15.55204,10.36803 -16.51204,11.13603z" data-paper-data="{&quot;index&quot;:null}" fill="#ffab19" fill-rule="evenodd" stroke="#000000" stroke-width="0.05" stroke-linecap="round" stroke-linejoin="round"/><path d="M345.89479,137.55004v62.29497h-208.43847v-62.29497z" data-paper-data="{&quot;index&quot;:null}" fill="#006bff" fill-rule="nonzero" stroke="none" stroke-width="0" stroke-linecap="butt" stroke-linejoin="miter"/><path d="M345.63194,199.34072l-0.78855,-60.47644l20.23929,13.40881l3.41703,42.14195l-20.50214,4.37838z" data-paper-data="{&quot;index&quot;:null}" fill="#ff0000" fill-rule="nonzero" stroke="#ff0000" stroke-width="0.5" stroke-linecap="round" stroke-linejoin="miter"/><path d="M372.44244,177.7264c-2.90333,0 -5.25695,-1.71059 -5.25695,-3.82071c0,-2.11012 2.35362,-3.82071 5.25695,-3.82071c2.90333,0 5.25695,1.71059 5.25695,3.82071c0,2.11012 -2.35362,3.82071 -5.25695,3.82071z" data-paper-data="{&quot;index&quot;:null}" fill="#ffffff" fill-rule="nonzero" stroke="#ff0000" stroke-width="0.5" stroke-linecap="butt" stroke-linejoin="miter"/><path d="M374.80805,205.89052c-1.45168,0 -2.62849,-6.89124 -2.62849,-15.39202c0,-8.50078 1.17681,-15.39202 2.62849,-15.39202c1.45168,0 2.62849,6.89124 2.62849,15.39202c0,8.50078 -1.17681,15.39202 -2.62849,15.39202z" data-paper-data="{&quot;index&quot;:null}" fill="#ffffff" fill-rule="nonzero" stroke="#ff0000" stroke-width="0.5" stroke-linecap="butt" stroke-linejoin="miter"/><path d="M371.90664,173.64537c-0.87099,0.30144 -4.33806,-4.95814 -7.7439,-11.74764c-3.40584,-6.7895 -5.46074,-12.53784 -4.58973,-12.83928c0.87099,-0.30144 4.33806,4.95814 7.7439,11.74764c3.40584,6.7895 5.46074,12.53784 4.58973,12.83928z" data-paper-data="{&quot;index&quot;:null}" fill="#ffffff" fill-rule="nonzero" stroke="#ff0000" stroke-width="0.5" stroke-linecap="butt" stroke-linejoin="miter"/><path d="M391.83133,169.06251c-8.47932,4.07907 -16.09041,6.32849 -16.99984,5.02421c-0.90943,-1.30428 5.22719,-5.66835 13.70653,-9.74742c8.47932,-4.07907 16.09041,-6.32849 16.99984,-5.02421c0.90943,1.30428 -5.22719,5.66835 -13.70653,9.74742z" data-paper-data="{&quot;index&quot;:null}" fill="#ffffff" fill-rule="nonzero" stroke="#ff0000" stroke-width="0.5" stroke-linecap="butt" stroke-linejoin="miter"/><path d="M234.57865,141.22992c12.99244,0 23.52489,10.53245 23.52489,23.52489c0,12.99244 -10.53245,23.52489 -23.52489,23.52489c-12.99244,0 -23.52489,-10.53245 -23.52489,-23.52489c0,-12.99244 10.53245,-23.52489 23.52489,-23.52489z" data-paper-data="{&quot;index&quot;:null}" fill="#ffffff" fill-rule="nonzero" stroke="#0023ff" stroke-width="0.5" stroke-linecap="butt" stroke-linejoin="miter"/><text transform="translate(219.99059,151.74383) scale(0.96,-0.96)" font-size="40" xml:space="preserve" data-paper-data="{&quot;index&quot;:null}" fill="#000000" fill-rule="nonzero" stroke="none" stroke-width="1" stroke-linecap="butt" stroke-linejoin="miter" stroke-miterlimit="10" stroke-dasharray="" stroke-dashoffset="0" font-family="Serif" font-weight="normal" text-anchor="start" style="mix-blend-mode: normal"><tspan x="0" dy="0">B</tspan></text><path d="M174.51788,135.97295v44.68415h-5.78265v-44.68415z" data-paper-data="{&quot;index&quot;:null}" fill="#ff0000" fill-rule="nonzero" stroke="none" stroke-width="0" stroke-linecap="butt" stroke-linejoin="miter"/><path d="M162.95258,145.43548v27.59905h-4.20556v-27.59905z" data-paper-data="{&quot;index&quot;:null}" fill="#ff0000" fill-rule="nonzero" stroke="none" stroke-width="0" stroke-linecap="butt" stroke-linejoin="miter"/><path d="M139.03341,123.6191v83.32282h-4.73126v-83.32282z" data-paper-data="{&quot;index&quot;:null}" fill="#000000" fill-rule="nonzero" stroke="none" stroke-width="0" stroke-linecap="butt" stroke-linejoin="miter"/><path d="M154.27859,108.37392v30.75321h-10.25108v-30.75321z" data-paper-data="{&quot;index&quot;:null}" fill="#007cff" fill-rule="nonzero" stroke="#000000" stroke-width="0.5" stroke-linecap="butt" stroke-linejoin="miter"/><path d="M164.52967,110.47671v30.75321h-10.25108v-30.75321z" data-paper-data="{&quot;index&quot;:null}" fill="#007cff" fill-rule="nonzero" stroke="#000000" stroke-width="0.5" stroke-linecap="butt" stroke-linejoin="miter"/><path d="M269.40602,153.58377v31.54176h-7.09689v-31.54176z" data-paper-data="{&quot;index&quot;:null}" fill="#70b5ff" fill-rule="nonzero" stroke="#000000" stroke-width="0.5" stroke-linecap="butt" stroke-linejoin="miter"/><path d="M287.54253,174.61162v8.14829h-18.92506v-8.14829z" data-paper-data="{&quot;index&quot;:null}" fill="#70b5ff" fill-rule="nonzero" stroke="#000000" stroke-width="0.5" stroke-linecap="butt" stroke-linejoin="miter"/><path d="M287.27969,160.41781v14.98233h-19.45076v-14.98233z" data-paper-data="{&quot;index&quot;:null}" fill="#70b5ff" fill-rule="nonzero" stroke="#000000" stroke-width="0.5" stroke-linecap="butt" stroke-linejoin="miter"/><path d="M297.2679,178.29148l-1.05139,-14.45664l11.03962,5.78265z" data-paper-data="{&quot;index&quot;:null}" fill="#007bff" fill-rule="nonzero" stroke="#000000" stroke-width="0.5" stroke-linecap="round" stroke-linejoin="miter"/></g></g></svg>