<svg version="1.1" xmlns="http://www.w3.org/2000/svg" xmlns:xlink="http://www.w3.org/1999/xlink" width="331.68602" height="164.45667" viewBox="0,0,331.68602,164.45667"><g transform="translate(-74.19118,-108.1844)"><g data-paper-data="{&quot;isPaintingLayer&quot;:true}" stroke-miterlimit="10" stroke-dasharray="" stroke-dashoffset="0" style="mix-blend-mode: normal"><path d="M117.29066,131.30477l80.11489,1.79416l25.66799,15.7354l6.8239,35.90161" fill="none" fill-rule="nonzero" stroke="#0050f2" stroke-width="1" stroke-linecap="round" stroke-linejoin="miter"/><path d="M345.63193,244.26634c0,7.69384 -47.1901,13.93094 -105.40205,13.93094c-58.21195,0 -105.40205,-6.2371 -105.40205,-13.93094c0,-7.69384 47.1901,-13.93094 105.40205,-13.93094c58.21195,0 105.40205,6.2371 105.40205,13.93094z" fill="#ffcc30" fill-rule="nonzero" stroke="#000000" stroke-width="0.5" stroke-linecap="butt" stroke-linejoin="miter"/><path d="M187.94833,192.27937l2.4204,10.19413l-25.41412,-15.29119l-74.54808,-78.80839z" fill="#006bff" fill-rule="nonzero" stroke="#000000" stroke-width="0.5" stroke-linecap="round" stroke-linejoin="miter"/><path d="M171.9146,197.01063l2.4204,10.19413l-25.41412,-15.29119l-74.54808,-78.80839z" fill="#006bff" fill-rule="nonzero" stroke="#000000" stroke-width="0.5" stroke-linecap="round" stroke-linejoin="miter"/><g fill-rule="evenodd" stroke="#000000" stroke-width="0.05"><path d="M225.97102,208.59373c1.536,0.768 4.80001,2.49601 0.192,9.02402c-4.60801,6.52802 -17.85604,7.87202 -19.39205,7.87202c-5.95201,0.192 -13.24803,0.192 -21.31205,-2.49601c-23.42406,-7.68002 -23.61606,-32.83208 -16.12804,-36.86409c7.29602,-4.03201 10.56003,11.52003 21.12005,20.92805c4.60801,4.22401 10.17602,5.76001 14.78404,6.72002c6.52802,1.152 19.00805,-6.14401 20.73605,-5.18401z" fill="#ffab19" stroke-linecap="round" stroke-linejoin="round"/><path d="M178.35491,193.04169c3.07201,5.18401 9.02402,12.48003 9.02402,12.48003c0,0 -7.10402,-1.728 -11.13603,1.536c-3.26401,2.49601 -2.49601,6.72002 -2.11201,8.06402c-2.49601,-2.49601 -5.56801,-5.95201 -7.48802,-12.67203c-1.92,-6.72002 0,-14.78404 3.84001,-15.93604c3.84001,-0.768 4.80001,2.11201 7.87202,6.52802z" fill="#ffffff" stroke-linecap="butt" stroke-linejoin="miter"/></g><path d="M266.09912,188.62568c0.96,0.768 12.67203,14.59204 16.51204,11.13603c4.60801,-4.03201 10.94403,-11.90403 17.85604,-5.56801c6.91202,6.33602 -6.14401,17.08804 -11.71203,19.96805c-13.24803,5.95201 -24.00006,-5.37601 -26.30406,-8.44802c-2.30401,-3.07201 -6.33602,-8.25602 -6.33602,-13.24803c0.192,-5.37601 6.72002,-6.72002 9.98402,-3.84001z" fill="#ffab19" fill-rule="evenodd" stroke="#000000" stroke-width="0.05" stroke-linecap="round" stroke-linejoin="round"/><path d="M137.45632,243.21494v-62.29497h208.43847v62.29497z" fill="#006bff" fill-rule="nonzero" stroke="none" stroke-width="0" stroke-linecap="butt" stroke-linejoin="miter"/><path d="M347.99757,181.97156l20.50214,4.37838l-3.41703,42.14195l-20.23929,13.40881l0.78855,-60.47644z" fill="#ff0000" fill-rule="nonzero" stroke="#ff0000" stroke-width="0.5" stroke-linecap="round" stroke-linejoin="miter"/><path d="M377.69939,206.85929c0,2.11012 -2.35362,3.82071 -5.25695,3.82071c-2.90333,0 -5.25695,-1.71059 -5.25695,-3.82071c0,-2.11012 2.35362,-3.82071 5.25695,-3.82071c2.90333,0 5.25695,1.71059 5.25695,3.82071z" fill="#ffffff" fill-rule="nonzero" stroke="#ff0000" stroke-width="0.5" stroke-linecap="butt" stroke-linejoin="miter"/><path d="M377.43654,190.26648c0,8.50078 -1.17681,15.39202 -2.62849,15.39202c-1.45168,0 -2.62849,-6.89124 -2.62849,-15.39202c0,-8.50078 1.17681,-15.39202 2.62849,-15.39202c1.45168,0 2.62849,6.89124 2.62849,15.39202z" fill="#ffffff" fill-rule="nonzero" stroke="#ff0000" stroke-width="0.5" stroke-linecap="butt" stroke-linejoin="miter"/><path d="M367.31691,219.95889c-3.40584,6.7895 -6.87291,12.04908 -7.7439,11.74764c-0.87101,-0.30144 1.18389,-6.04978 4.58973,-12.83928c3.40584,-6.7895 6.87291,-12.04908 7.7439,-11.74764c0.87101,0.30144 -1.18389,6.04978 -4.58973,12.83928z" fill="#ffffff" fill-rule="nonzero" stroke="#ff0000" stroke-width="0.5" stroke-linecap="butt" stroke-linejoin="miter"/><path d="M405.53786,221.44989c-0.90943,1.30428 -8.52052,-0.94514 -16.99984,-5.02421c-8.47934,-4.07907 -14.61596,-8.44314 -13.70653,-9.74742c0.90943,-1.30428 8.52052,0.94514 16.99984,5.02421c8.47934,4.07907 14.61596,8.44314 13.70653,9.74742z" fill="#ffffff" fill-rule="nonzero" stroke="#ff0000" stroke-width="0.5" stroke-linecap="butt" stroke-linejoin="miter"/><path d="M211.05376,216.01017c0,-12.99244 10.53245,-23.52489 23.52489,-23.52489c12.99244,0 23.52489,10.53245 23.52489,23.52489c0,12.99244 -10.53245,23.52489 -23.52489,23.52489c-12.99244,0 -23.52489,-10.53245 -23.52489,-23.52489z" fill="#ffffff" fill-rule="nonzero" stroke="#0023ff" stroke-width="0.5" stroke-linecap="butt" stroke-linejoin="miter"/><text transform="translate(219.99059,229.02115) scale(0.96,0.96)" font-size="40" xml:space="preserve" fill="#000000" fill-rule="nonzero" stroke="none" stroke-width="1" stroke-linecap="butt" stroke-linejoin="miter" stroke-miterlimit="10" stroke-dasharray="" stroke-dashoffset="0" font-family="Serif" font-weight="normal" text-anchor="start" style="mix-blend-mode: normal"><tspan x="0" dy="0">B</tspan></text><path d="M168.73523,244.79203v-44.68415h5.78265v44.68415z" fill="#ff0000" fill-rule="nonzero" stroke="none" stroke-width="0" stroke-linecap="butt" stroke-linejoin="miter"/><path d="M158.74702,235.3295v-27.59905h4.20556v27.59905z" fill="#ff0000" fill-rule="nonzero" stroke="none" stroke-width="0" stroke-linecap="butt" stroke-linejoin="miter"/><path d="M134.30215,257.14588v-83.32282h4.73126v83.32282z" fill="#000000" fill-rule="nonzero" stroke="none" stroke-width="0" stroke-linecap="butt" stroke-linejoin="miter"/><path d="M144.02751,272.39106v-30.75321h10.25108v30.75321z" fill="#007cff" fill-rule="nonzero" stroke="#000000" stroke-width="0.5" stroke-linecap="butt" stroke-linejoin="miter"/><path d="M154.27859,270.28827v-30.75321h10.25108v30.75321z" fill="#007cff" fill-rule="nonzero" stroke="#000000" stroke-width="0.5" stroke-linecap="butt" stroke-linejoin="miter"/><path d="M262.30913,227.18121v-31.54176h7.09689v31.54176z" fill="#70b5ff" fill-rule="nonzero" stroke="#000000" stroke-width="0.5" stroke-linecap="butt" stroke-linejoin="miter"/><path d="M268.61747,206.15336v-8.14829h18.92506v8.14829z" fill="#70b5ff" fill-rule="nonzero" stroke="#000000" stroke-width="0.5" stroke-linecap="butt" stroke-linejoin="miter"/><path d="M267.82893,220.34717v-14.98233h19.45076v14.98233z" fill="#70b5ff" fill-rule="nonzero" stroke="#000000" stroke-width="0.5" stroke-linecap="butt" stroke-linejoin="miter"/><path d="M307.25613,211.14749l-11.03962,5.78265l1.05139,-14.45664z" fill="#007bff" fill-rule="nonzero" stroke="#000000" stroke-width="0.5" stroke-linecap="round" stroke-linejoin="miter"/></g></g></svg>